<?xml version="1.0" encoding="UTF-8"?>
<svg id="Layer_1" data-name="Layer 1" xmlns="http://www.w3.org/2000/svg" viewBox="0 0 700 59.75">
  <defs>
    <style>
      .cls-1 {
        fill: #4d231d;
      }

      .cls-2 {
        fill: red;
        stroke: #4d231d;
        stroke-miterlimit: 10;
        stroke-width: 4px;
      }
    </style>
  </defs>
  <rect class="cls-2" x="2" y="14.12" width="696" height="43.62"/>
  <path class="cls-1" d="m40.67,2.94c.83.3,1.48.65,2.21,1.12s1.75.61,2.58.85c1.46.42,2.91.84,4.37,1.26,2.53.72,5.06,1.44,7.59,2.16,2.31.66,4.61,1.35,6.91,2.07s4.77,1.65,7.18,2.36c3.35.99,6.71,1.93,10.06,2.91,1.35.39,2.99-.48,3.31-1.88s-.43-2.92-1.88-3.31c-3.04-.82-6.08-1.63-9.12-2.43-2.5-.66-5.06-1.12-7.58-1.7-4.83-1.11-9.62-2.35-14.42-3.6-1.6-.42-3.2-.83-4.8-1.25-.86-.23-1.72-.5-2.59-.68-.59-.12-1.07-.01-1.62-.03s-1.02-.12-1.55-.22c-1.57-.32-2.16,1.85-.66,2.39h0Z"/>
  <path class="cls-1" d="m84.25,15.28c-.41.17.16-.03.3-.07.25-.07.5-.12.76-.19.63-.16,1.25-.36,1.87-.54,1.1-.33,2.2-.67,3.3-1.02,2.16-.68,4.31-1.39,6.46-2.1,4.2-1.4,8.37-2.89,12.47-4.56.72-.29,1.43-.62,2.14-.94-.05.02-.22.1.01,0,.18-.08.37-.15.55-.22.29-.12.59-.23.88-.35.75-.3,1.06-.45,1.78-.73.76-.29,1.56-.55,2.28-.94.86-.46,1.16-1.58.8-2.44-.4-.94-1.33-1.31-2.3-1.13-1.17.22-2.32.71-3.46,1.04s-2.18.64-3.26.96c-2.15.64-4.28,1.36-6.39,2.11-4.26,1.51-8.51,3.04-12.78,4.49-1.24.42-2.48.83-3.72,1.25-1.32.45-2.7.84-3.88,1.58-.97.61-1.44,1.99-.79,3.01.71,1.1,1.87,1.27,3.01.79h0Z"/>
  <path class="cls-1" d="m115.03,2.76c.82.88,2,1.3,3.1,1.73.83.33,1.67.65,2.5.99,1.32.54,2.65,1.07,3.99,1.54,2.39.85,4.78,1.67,7.19,2.44,4.83,1.54,9.65,3.04,14.43,4.73,1.24.44,2.48.88,3.72,1.34.48.18.96.38,1.46.5.63.15,1.9.13,2.52-.32l-1.61.21c.13.03.54.16.74.08.01,0,.05,0,.07,0-.66-.22-.54.24-1.3-.55l-.56-1.36v.02c.63-.64,1.27-1.27,1.9-1.91h-.01c-.99.12-1.96.79-1.91,1.91.04.93.85,2.04,1.91,1.91l-.48-.07c.98.23,2.13-.3,2.37-1.35s-.3-1.91-1.12-2.51l1.04,1.81c-.07-.77-.44-1.48-.97-2.04s-1.41-.86-2.1-1.12c-1.07-.4-2.15-.77-3.23-1.15-2.07-.72-4.15-1.42-6.23-2.11-5.16-1.71-10.44-3.09-15.65-4.63-1.48-.44-2.94-.87-4.43-1.26-.91-.24-1.83-.49-2.74-.74-1.31-.36-2.6-.74-3.96-.5-1.12.2-1.31,1.68-.63,2.4h0Z"/>
  <path class="cls-1" d="m159.49,6.61c.46.15.92.31,1.37.49.36.14-.4-.17-.11-.05.11.05.22.1.33.14.24.1.47.21.71.31.81.35,1.62.69,2.44,1.01.04.02.34.14.07.02.1.04.19.08.29.13.34.14.67.29,1.01.43.46.19.79.34,1.37.6,3.86,1.72,7.8,3.13,11.78,4.54,2.44.86,4.89,1.68,7.37,2.37,1.34.37,2.95-.46,3.27-1.86s-.41-2.9-1.86-3.27c-4.42-1.11-8.69-2.67-13.05-3.93-1.76-.51-3.5-1.11-5.25-1.67-1.85-.59-3.72-1.1-5.53-1.82-1.05-.42-2.09-.86-3.18-1.18-.97-.28-2.15.34-2.38,1.35s.32,2.05,1.35,2.38h0Z"/>
  <path class="cls-1" d="m189.75,12.75c-1.14-.32-2.48.05-3.6.37-.92.26-1.82.56-2.72.86s-1.75.5-2.62.78-1.64.56-2.48.79c-1.91.53-3.75,1.28-5.63,1.92s-3.8,1.24-5.7,1.88c-1.11.38-2.23.76-3.33,1.17-.59.22-1.17.44-1.75.66-.5.2-1.03.36-1.46.7-.15.11-.31.23-.44.36-.25.23-.43.51-.53.83-.16.39-.17.41-.03.05-.72,1.21-.06,2.92,1.33,3.27l-.12-.06c-.32-.16-.16-.09.49.2.25.06.54.09.79.09.45,0,.85-.12,1.26-.29.54-.22,1.09-.44,1.64-.66.97-.38,1.94-.74,2.92-1.09,1.89-.68,3.79-1.33,5.67-2.03,2.01-.75,4.05-1.51,6.01-2.38.2-.09.4-.18.6-.27.09-.04.17-.08.26-.11-.08.03-.44.17-.04.03s.81-.31,1.22-.46c.53-.2,1.06-.4,1.58-.62.2-.08.4-.17.59-.25.09-.04.17-.07.26-.11.54-.23-.24.07.1-.03,1.12-.34,2.24-.83,3.3-1.32,1.17-.53,2.52-1.15,3.23-2.27.46-.74.01-1.75-.8-1.97h0Z"/>
  <path class="cls-1" d="m114.65,25.87c1.98.44,4.17-.44,6.11-.86,1.41-.3,2.81-.62,4.2-.98,2.44-.62,4.88-1.21,7.32-1.82,4.95-1.24,9.87-2.49,14.76-3.95,1.28-.38,2.55-.77,3.82-1.17.63-.2,1.35-.41,1.93-.74.54-.31,1.47-1.21,1.57-1.95l-.96,1.25c.86-.58,1.32-1.44,1.13-2.49s-1.42-1.52-2.37-1.35h-.02c.34,0,.68,0,1.01,0h-.01c-.98-.16-2.1.25-2.34,1.33-.21.92.28,2.17,1.33,2.34h.01c-.47-.61-.93-1.22-1.4-1.84v.02c.19-.45.38-.91.57-1.36.97-.93.55-.24,1.31-.55-.02,0-.06,0-.08,0-.24-.06-.53.03-.75.07l2.04.54c-.61-.48-1.36-.75-2.14-.78-.59-.02-1.25.2-1.82.39-1.09.36-2.19.71-3.3,1.05-2.08.64-4.16,1.27-6.25,1.89-5.21,1.53-10.5,2.8-15.7,4.39-1.47.45-2.92.92-4.37,1.44-.89.32-1.78.63-2.67.94-1.25.43-2.6.82-3.57,1.77-.74.73-.43,2.17.63,2.4h0Z"/>
</svg>