<?xml version="1.0" encoding="UTF-8"?>
<svg id="Layer_1" data-name="Layer 1" xmlns="http://www.w3.org/2000/svg" viewBox="0 0 700 26.93">
  <defs>
    <style>
      .cls-1 {
        fill: #4d231d;
      }

      .cls-2 {
        fill: blue;
        stroke: #4d231d;
        stroke-miterlimit: 10;
        stroke-width: 4px;
      }
    </style>
  </defs>
  <polyline class="cls-2" points="0 2 698 2 698 24.93 0 24.93"/>
  <path class="cls-1" d="m276,12.17c.47-.06.95-.17,1.42-.09.44.07.89.17,1.4.08.87-.15,1.73-.37,2.59-.56,1.42-.31,2.84-.62,4.26-.93,2.25-.49,4.49-1.04,6.75-1.5,3.34-.68,6.74-1.18,10.05-2.01,2.13-.53,4.25-1.07,6.38-1.61,1.37-.34,2.32-1.95,1.88-3.31s-1.86-2.29-3.31-1.88c-1.89.53-3.78,1.06-5.67,1.59-1.6.45-3.16.98-4.74,1.49-3.73,1.21-7.49,2.23-11.29,3.19-1.5.38-3.01.76-4.51,1.13-.9.23-1.81.45-2.71.67-.22.05-.45.09-.66.16-.39.13-.64.36-.97.59-.38.26-.77.39-1.2.53-.58.19-.98.73-.89,1.36.08.54.6,1.16,1.22,1.08h0Z"/>
  <path class="cls-1" d="m310.69,5.53c4.15,1.28,8.45,2.11,12.66,3.16,3.8.95,7.59,1.9,11.41,2.73.26.06.52.11.79.16s.54.06.81.11c-.33-.06-.1,0,.1.03.57.12,1.13.27,1.7.39,1.27.26,2.55.66,3.85.78,1.9.18,2.71-2.83.99-3.64-1.06-.5-2.2-.73-3.3-1.12-.97-.34-1.95-.62-2.91-.98-1.85-.71-3.83-1.21-5.74-1.7-3.91-1-7.84-1.9-11.78-2.75-2.65-.57-5.28-1.13-7.97-1.48-1.08-.14-2.03.94-2.16,1.91-.15,1.09.52,2.09,1.57,2.41h0Z"/>
  <path class="cls-1" d="m379.68.37c-.14-.04-.28-.09-.41-.15l.86.5c-.61-.47-1.06-.71-1.85-.71-.44,0-.87.09-1.3.16-.74.12-1.47.25-2.2.38-1.24.23-2.48.51-3.72.78-2.22.49-4.43,1.05-6.65,1.55-4.84,1.08-9.72,1.97-14.55,3.1-1.38.32-2.75.66-4.13,1-.79.2-1.58.4-2.37.6-1.27.32-2.65.55-3.32,1.84s-.29,2.69.91,3.48c1.09.72,2.26.39,3.41.08.73-.19,1.46-.39,2.18-.58,1.26-.33,2.53-.65,3.79-.97,2.39-.6,4.79-1.15,7.2-1.68,4.68-1.03,9.32-2.1,13.95-3.33,1.32-.35,2.63-.71,3.94-1.08.77-.21,1.54-.43,2.31-.65.49-.14.96-.28,1.43-.48.24-.1.42-.2.63-.36.23-.15.42-.35.55-.6-.14.14-.12.13.06-.04.99-.88.4-2.47-.75-2.83h0Z"/>
  <path class="cls-1" d="m415.92.31c-1.16-.29-2.49.09-3.61.42-.95.29-1.89.62-2.83.95-.84.29-1.69.51-2.53.8s-1.71.61-2.58.86c-1.91.56-3.75,1.36-5.62,2.03s-3.76,1.29-5.63,1.96c-1.14.4-2.27.82-3.4,1.26-.58.23-1.16.46-1.73.69-.5.21-1.03.37-1.45.71-.16.12-.29.23-.43.37-.25.23-.43.51-.53.82-.16.39-.17.41-.03.06-.69,1.19-.09,2.95,1.33,3.27l-.12-.07c-.32-.17-.16-.1.49.19.25.06.54.09.79.09.61,0,1.12-.22,1.67-.46.15-.06.29-.13.44-.19.03-.01.39-.17.12-.05s.09-.04.12-.05c.18-.07.36-.15.53-.22.99-.41,1.99-.79,2.99-1.17,1.87-.7,3.74-1.38,5.6-2.1,1.1-.43,2.18-.88,3.26-1.34.09-.04.44-.18,0,0,.1-.04.19-.08.29-.12.22-.09.44-.18.67-.28.59-.24,1.19-.47,1.77-.75.2-.09.4-.19.61-.28.09-.04.17-.08.26-.12.3-.16-.36.14-.04.01.44-.17.87-.35,1.31-.52.53-.21,1.06-.42,1.58-.64.17-.07.34-.15.51-.23.11-.05.23-.1.34-.15.18-.08.2-.09,0-.01,1.14-.47,2.29-.88,3.4-1.41,1.17-.56,2.54-1.2,3.23-2.34.45-.73.03-1.77-.8-1.97h0Z"/>
</svg>