<?xml version="1.0" encoding="UTF-8"?>
<svg id="Layer_1" data-name="Layer 1" xmlns="http://www.w3.org/2000/svg" viewBox="0 0 700 39.41">
  <defs>
    <style>
      .cls-1 {
        fill: #4d231d;
      }

      .cls-2 {
        fill: #fff;
        stroke: #4d231d;
        stroke-miterlimit: 10;
        stroke-width: 4px;
      }
    </style>
  </defs>
  <rect class="cls-2" x="2" y="2" width="696" height="24.84"/>
  <path class="cls-1" d="m535.37,13.82c.7.22,1.49.45,2.09.82.4.24.53.42.99.58.22.07.45.12.67.18.44.12.87.23,1.31.35,1.58.42,3.15.85,4.73,1.28,2.82.78,5.64,1.58,8.45,2.41,2.62.77,5.22,1.61,7.81,2.49s5.2,1.95,7.83,2.81c3.5,1.14,7,2.29,10.5,3.45,1.34.44,3-.51,3.31-1.88.33-1.46-.44-2.87-1.88-3.31-3.14-.97-6.29-1.94-9.43-2.9-2.73-.83-5.53-1.47-8.29-2.2-5.37-1.42-10.73-2.89-16.11-4.26-1.76-.45-3.52-.89-5.29-1.32-.43-.11-.87-.21-1.3-.32-.58-.14-1.22-.38-1.82-.39-.49,0-.87.05-1.36.04-.52,0-1.03-.12-1.55-.21-1.56-.28-2.2,1.9-.66,2.39h0Z"/>
  <path class="cls-1" d="m582.44,27.84c.07-.04.38-.16,0-.02.1-.04.2-.07.29-.11.25-.08.5-.15.76-.22.62-.18,1.23-.41,1.84-.61,1.12-.38,2.24-.78,3.36-1.18,2.16-.78,4.31-1.59,6.46-2.41,4.36-1.67,8.69-3.42,12.93-5.36,1.2-.55,2.37-1.15,3.57-1.69s2.56-1.03,3.7-1.71c1.93-1.15.64-4.07-1.5-3.57-1.16.27-2.28.82-3.41,1.2s-2.21.76-3.32,1.14c-2.19.75-4.35,1.6-6.5,2.47-4.25,1.72-8.51,3.46-12.79,5.11-1.22.47-2.44.93-3.66,1.4-1.35.52-2.78.94-3.97,1.78-.94.66-1.47,1.95-.79,3.01s1.91,1.34,3.01.79h0Z"/>
  <path class="cls-1" d="m613.36,13.64c.75.86,1.84,1.31,2.86,1.76.8.35,1.6.7,2.4,1.07,1.44.66,2.89,1.29,4.36,1.88,2.39.96,4.79,1.89,7.21,2.77,4.86,1.77,9.73,3.48,14.53,5.41.65.26,1.3.52,1.95.79.32.13.65.27.97.4.14.06.27.11.41.17.56.23-.52-.22-.08-.04.64.27,1.28.58,1.95.79.52.16.96.1,1.48.03.02,0,.22-.05.23-.03-.02-.02-.77.1-.36.05.45-.06.76-.13,1.18-.31l-1.61.21c.17.04.55,0,.74.09.21.1-.61-.11-.44-.06-.14-.04-.65-.29-.8-.48l-.56-1.36v.02c.46-.61.93-1.23,1.4-1.84h-.01c-1.02.14-1.58,1.45-1.33,2.35.3,1.1,1.32,1.47,2.34,1.33h.01c-.34,0-.68,0-1.01,0h.02c1.05.15,2.05-.24,2.37-1.34.22-.76-.11-1.67-.68-2.2l.54.92c-.31-1.49-1.83-2.21-3.08-2.73-1.06-.44-2.13-.87-3.19-1.3-2.07-.82-4.15-1.63-6.24-2.42-5.14-1.94-10.43-3.53-15.63-5.3-1.47-.5-2.93-1-4.41-1.45-.92-.28-1.84-.57-2.75-.87-1.18-.38-2.46-.89-3.72-.74s-1.89,1.46-1.02,2.45h0Z"/>
  <path class="cls-1" d="m652.1,25.15c-.66-.19.43.17-.34-.16-.34-.15-.69-.19-1.06-.19-.44,0-.87.09-1.3.17-.74.13-1.47.27-2.2.43-1.25.26-2.48.56-3.72.86-2.23.53-4.44,1.15-6.66,1.69-4.87,1.19-9.79,2.16-14.65,3.39-1.37.35-2.73.71-4.09,1.07-.78.21-1.57.42-2.35.64-1.23.34-2.7.59-3.3,1.88s-.32,2.66.91,3.47c1.09.72,2.25.38,3.39.05.72-.21,1.44-.41,2.17-.62,1.25-.35,2.51-.7,3.76-1.04,2.37-.64,4.74-1.24,7.13-1.8,2.51-.6,5.03-1.14,7.52-1.79,2.21-.58,4.4-1.21,6.6-1.84,1.32-.38,2.63-.77,3.95-1.16.77-.23,1.54-.46,2.31-.7.49-.15.97-.29,1.43-.5.23-.11.43-.21.63-.37.23-.15.42-.35.55-.6-.14.14-.12.12.07-.05.96-.88.43-2.49-.75-2.83h0Z"/>
  <path class="cls-1" d="m686.46,28.29c1.01,0,1.98-.89,1.93-1.93s-.85-1.93-1.93-1.93c-1.01,0-1.98.89-1.93,1.93s.85,1.93,1.93,1.93h0Z"/>
  <path class="cls-1" d="m655.09,16.28c4.74,1.7,9.03,3.91,13.72,5.86,4.44,1.85,8.92,3.6,13.39,5.37.85.34,1.69.67,2.54,1.01.25.1.49.2.74.29.07.03.13.05.2.08-1.08-.41-.41-.16.07.03,1.3.5,2.97-.55,3.27-1.86.35-1.52-.46-2.74-1.86-3.27-3.13-1.19-6.29-2.31-9.43-3.46-3.66-1.34-7.33-2.66-11.03-3.91s-7.02-2.68-10.59-3.87c-.96-.32-2.16.37-2.38,1.35-.25,1.09.33,2.01,1.35,2.38h0Z"/>
  <path class="cls-1" d="m688.39,25.06c-1.33-.32-2.79.14-4.07.51-.99.29-1.96.65-2.94,1-.85.3-1.71.54-2.56.83s-1.63.6-2.46.85c-1.81.54-3.58,1.2-5.38,1.81-2.04.69-4.1,1.33-6.16,1.98-1.25.4-2.5.79-3.75,1.18-.65.2-1.29.41-1.93.61-.38.12-.76.23-1.13.36-.45.17-.8.34-1.17.68-.18.17-.8,1.03-.4.53-.5.65-.8,1.33-.57,2.16.21.75.81,1.35,1.55,1.55-.68-.19.33.13.39.15.27.08.63.11.91.12.49.02.94-.17,1.39-.33.65-.22,1.3-.44,1.95-.66,1.1-.37,2.2-.73,3.3-1.09,2.08-.69,4.16-1.4,6.22-2.15s4.04-1.46,5.98-2.34c.19-.08.37-.17.56-.25.53-.25-.4.15.14-.07.4-.16.81-.32,1.21-.49.97-.39,1.93-.79,2.88-1.23.36-.17.02,0-.05.02.16-.06.32-.13.49-.19.25-.1.5-.2.75-.3.67-.27,1.35-.53,2.01-.84,1.33-.61,2.79-1.24,3.66-2.45.5-.7-.02-1.79-.8-1.97h0Z"/>
</svg>